<svg width="50" height="50" viewBox="0 0 50 50" fill="none" xmlns="http://www.w3.org/2000/svg">
<path d="M25 4.6875C13.8 4.6875 4.6875 13.8 4.6875 25C4.6875 36.2 13.8 45.3125 25 45.3125C36.2 45.3125 45.3125 36.2 45.3125 25C45.3125 13.8 36.2 4.6875 25 4.6875ZM25 42.1875C15.5229 42.1875 7.8125 34.4771 7.8125 25C7.8125 15.5229 15.5229 7.8125 25 7.8125C34.4771 7.8125 42.1875 15.5229 42.1875 25C42.1875 34.4771 34.4771 42.1875 25 42.1875ZM30.2709 23.8937C30.8813 24.5042 30.8813 25.4938 30.2709 26.1042L24.0209 32.3542C23.7167 32.6584 23.3167 32.8125 22.9167 32.8125C22.5167 32.8125 22.1166 32.6605 21.8124 32.3542C21.202 31.7438 21.202 30.7542 21.8124 30.1437L26.9583 24.998L21.8124 19.8522C21.202 19.2418 21.202 18.2521 21.8124 17.6417C22.4229 17.0313 23.4125 17.0313 24.0229 17.6417L30.2709 23.8937Z" fill="white"/>
</svg>
