<svg width="50" height="50" viewBox="0 0 50 50" fill="none" xmlns="http://www.w3.org/2000/svg">
<path d="M28.1876 19.8542L23.0417 25L28.1876 30.1458C28.798 30.7562 28.798 31.7458 28.1876 32.3563C27.8834 32.6604 27.4833 32.8145 27.0833 32.8145C26.6833 32.8145 26.2833 32.6625 25.9791 32.3563L19.7291 26.1063C19.1187 25.4958 19.1187 24.5062 19.7291 23.8958L25.9791 17.6458C26.5895 17.0354 27.5792 17.0354 28.1896 17.6458C28.8 18.2562 28.798 19.2438 28.1876 19.8542ZM45.3125 25C45.3125 36.2 36.2 45.3125 25 45.3125C13.8 45.3125 4.6875 36.2 4.6875 25C4.6875 13.8 13.8 4.6875 25 4.6875C36.2 4.6875 45.3125 13.8 45.3125 25ZM42.1875 25C42.1875 15.5229 34.4771 7.8125 25 7.8125C15.5229 7.8125 7.8125 15.5229 7.8125 25C7.8125 34.4771 15.5229 42.1875 25 42.1875C34.4771 42.1875 42.1875 34.4771 42.1875 25Z" fill="white"/>
</svg>
